<svg xmlns="http://www.w3.org/2000/svg" viewBox="0 0 512 512">
  <rect width="512" height="512" rx="112" fill="#206aff" />
  <rect x="92" y="124" width="328" height="264" rx="36" fill="#fff" opacity="0.14" />
  <path
    d="M156 194c0-22.091 17.909-40 40-40h120c22.091 0 40 17.909 40 40v18h18c17.673 0 32 14.327 32 32v88c0 17.673-14.327 32-32 32H138c-17.673 0-32-14.327-32-32v-88c0-17.673 14.327-32 32-32h18v-18zm40 18h120v-18H196v18z"
    fill="#fff"
  />
  <path
    d="M156 402h200"
    stroke="#fff"
    stroke-linecap="round"
    stroke-width="26"
  />
</svg>
