<svg xmlns="http://www.w3.org/2000/svg" viewBox="0 0 512 512">
  <rect width="512" height="512" fill="#206aff" />
  <circle cx="256" cy="256" r="164" fill="#fff" opacity="0.14" />
  <path
    d="M164 214c0-26.51 21.49-48 48-48h88c26.51 0 48 21.49 48 48v22h18c22.091 0 40 17.909 40 40v72c0 22.091-17.909 40-40 40H146c-22.091 0-40-17.909-40-40v-72c0-22.091 17.909-40 40-40h18v-22zm48 22h88v-22h-88v22z"
    fill="#fff"
  />
  <path
    d="M178 414h156"
    stroke="#fff"
    stroke-linecap="round"
    stroke-width="28"
  />
</svg>
